<svg xmlns="http://www.w3.org/2000/svg" width="18.704" height="21.219" viewBox="0 0 18.704 21.219"><defs><style>.a{stroke:#156082;stroke-width:0.75px;}</style></defs><g transform="translate(-299.625 -317.625)"><path class="a" d="M314.646,337.878V318H303.307v19.878H300v.516h3.78V318.516h10.394v19.878h3.78v-.516Z"/><path class="a" d="M320,342.3l10.31-1.085V324.885L320,323.8Zm.665-17.918,8.98.934v15.47l-8.98.934Z" transform="translate(-16.603 -3.871)"/><path class="a" d="M341.228,358a.812.812,0,0,0-.732.665H339v.665h1.5a.812.812,0,0,0,.732.665c.432,0,.765-.432.765-1S341.661,358,341.228,358Zm0,.665c.033,0,.1.166.1.333,0,.133-.067.333-.1.333-.067,0-.133-.2-.1-.333A.352.352,0,0,1,341.228,358.665Z" transform="translate(-30.292 -29.914)"/></g></svg>