<svg xmlns="http://www.w3.org/2000/svg" xmlns:xlink="http://www.w3.org/1999/xlink" width="527.829" height="456" viewBox="0 0 527.829 456"><defs><style>.a{clip-rule:evenodd;}.b,.c,.d{fill-rule:evenodd;}.c{fill:#39606e;}.d{fill:#6cb1d0;}.e{clip-path:url(#a);}.f{fill:#fff;}.g{clip-path:url(#d);}.h{clip-path:url(#g);}.i{clip-path:url(#j);}</style><clipPath id="a"><path class="a" d="M2730.99,421.854l61.555-314.475,314.479,61.558-61.562,314.475Z" transform="translate(-2730.99 -107.379)"/></clipPath><clipPath id="d"><path class="a" d="M2946.67,586.635,2777.76,377.328l209.309-168.909,168.91,209.308Z" transform="translate(-2777.76 -208.419)"/></clipPath><clipPath id="g"><path class="a" d="M3314.734,427.251l-61.563-314.475L2938.7,174.334l61.555,314.475Z" transform="translate(-2938.7 -112.776)"/></clipPath><clipPath id="j"><path class="a" d="M3098.239,592.032l168.91-209.307L3057.84,213.816,2888.93,423.123Z" transform="translate(-2888.93 -213.816)"/></clipPath></defs><g transform="translate(-2730.99 -107.379)"><path class="c" d="M0,0,49.246,217.779H347.579L396.825,0Z" transform="translate(2777.769 539.006) rotate(-90)"/><path class="d" d="M3309.048,552.825,3092,503.744V205.081L3309.048,156Z" transform="translate(-97.183 -13.089)"/><g class="e" transform="translate(2730.99 107.379)"><g class="e"><g class="e"><path class="f" d="M2933.651,333.278a30.04,30.04,0,1,1-23.708-35.253A29.912,29.912,0,0,1,2933.651,333.278Zm-98.271-19.237a69.491,69.491,0,0,0,19.045,62.57,70.476,70.476,0,0,0,62.469,19.71l74.878-17.654,61.606-15.832a6.748,6.748,0,0,0,2.3-11.793L3004.6,313.152l-62.7-44.585a70.476,70.476,0,0,0-65.29-5.3A69.5,69.5,0,0,0,2835.38,314.041Z" transform="translate(-2758.74 -147.826)"/></g></g></g><g class="g" transform="translate(2765.17 181.219)"><g class="g" transform="translate(0)"><g class="g"><path class="f" d="M2995.723,451.388a25.215,25.215,0,1,1-35.459-3.787A25.113,25.113,0,0,1,2995.723,451.388Zm-65.407,52.784a58.331,58.331,0,0,0,50.491,21.532,59.161,59.161,0,0,0,46.391-29.513l29.071-57.662,23.072-48.141a5.667,5.667,0,0,0-6.336-7.85l-51.924,12.385-62.505,16.236a59.158,59.158,0,0,0-38.645,39.106A58.337,58.337,0,0,0,2930.316,504.173Z" transform="translate(-2815.332 -255.243)"/></g></g></g><g class="h" transform="translate(2882.785 111.323)"><g class="h" transform="translate(0)"><g class="h"><path class="f" d="M69.868,126.841A30.042,30.042,0,1,0,99.91,156.883,29.917,29.917,0,0,0,69.868,126.841Zm0,100.138A69.509,69.509,0,0,1,12.122,196.27a70.471,70.471,0,0,1-7.344-65.09l31.711-70.1L63.86,3.672a6.752,6.752,0,0,1,12.017,0l27.371,57.412,31.71,70.1a70.473,70.473,0,0,1-7.343,65.09A69.509,69.509,0,0,1,69.868,226.979Z" transform="translate(90.065 278.385) rotate(-101.075)"/></g></g></g><g class="i" transform="translate(2846.413 185.163)"><g class="i"><g class="i"><path class="f" d="M58.643,106.464a25.215,25.215,0,1,0,25.215,25.215A25.11,25.11,0,0,0,58.643,106.464Zm0,84.05a58.343,58.343,0,0,1-48.469-25.775,59.152,59.152,0,0,1-6.164-54.633L30.626,51.27,53.6,3.082a5.668,5.668,0,0,1,10.087,0L86.66,51.27l26.616,58.835a59.152,59.152,0,0,1-6.164,54.633A58.343,58.343,0,0,1,58.643,190.514Z" transform="matrix(0.628, -0.778, 0.778, 0.628, 78.152, 174.922)"/></g></g></g></g></svg>