<svg xmlns="http://www.w3.org/2000/svg" xmlns:xlink="http://www.w3.org/1999/xlink" width="197.945" height="171.007" viewBox="0 0 197.945 171.007"><defs><style>.a{clip-rule:evenodd;}.b,.c,.d{fill-rule:evenodd;}.c{fill:#39606e;}.d{fill:#6cb1d0;}.e{clip-path:url(#a);}.f{fill:#fff;}.g{clip-path:url(#d);}.h{clip-path:url(#g);}.i{clip-path:url(#j);}</style><clipPath id="a"><path class="a" d="M2730.99,225.312l23.084-117.933,117.935,23.085L2848.922,248.4Z" transform="translate(-2730.99 -107.379)"/></clipPath><clipPath id="d"><path class="a" d="M2841.1,350.256l-63.344-78.493,78.494-63.344,63.344,78.494Z" transform="translate(-2777.76 -208.419)"/></clipPath><clipPath id="g"><path class="a" d="M3079.719,230.709l-23.087-117.933L2938.7,135.861l23.084,117.933Z" transform="translate(-2938.7 -112.776)"/></clipPath><clipPath id="j"><path class="a" d="M2967.424,355.653l63.344-78.493-78.494-63.344-63.344,78.493Z" transform="translate(-2888.93 -213.816)"/></clipPath></defs><path class="c" d="M0,0,18.468,81.671h111.88L148.816,0Z" transform="translate(17.543 161.867) rotate(-90)"/><path class="d" d="M3173.4,304.816,3092,286.41v-112L3173.4,156Z" transform="translate(-2993.061 -142.675)"/><g class="e" transform="translate(0 0)"><g class="e"><g class="e"><path class="f" d="M2871.417,286a11.266,11.266,0,1,1-8.891-13.22A11.218,11.218,0,0,1,2871.417,286Zm-36.853-7.214a26.06,26.06,0,0,0,7.142,23.465,26.429,26.429,0,0,0,23.427,7.392l28.081-6.621,23.1-5.937a2.531,2.531,0,0,0,.863-4.423l-19.157-14.21-23.512-16.72a26.43,26.43,0,0,0-24.485-1.987A26.066,26.066,0,0,0,2834.564,278.783Z" transform="translate(-2805.823 -216.45)"/></g></g></g><g class="g" transform="translate(12.818 27.691)"><g class="g" transform="translate(0)"><g class="g"><path class="f" d="M2946.729,408.245a9.456,9.456,0,1,1-13.3-1.42A9.418,9.418,0,0,1,2946.729,408.245ZM2922.2,428.04a21.875,21.875,0,0,0,18.935,8.075,22.186,22.186,0,0,0,17.4-11.068l10.9-21.624,8.652-18.054a2.125,2.125,0,0,0-2.376-2.944l-19.472,4.645-23.44,6.089a22.185,22.185,0,0,0-14.493,14.665A21.877,21.877,0,0,0,2922.2,428.04Z" transform="translate(-2879.078 -334.687)"/></g></g></g><g class="h" transform="translate(56.926 1.479)"><g class="h" transform="translate(0)"><g class="h"><path class="f" d="M26.2,47.567A11.266,11.266,0,1,0,37.468,58.834,11.219,11.219,0,0,0,26.2,47.567Zm0,37.553A26.067,26.067,0,0,1,4.546,73.6a26.428,26.428,0,0,1-2.754-24.41L13.684,22.907,23.948,1.377a2.532,2.532,0,0,1,4.506,0L38.72,22.907,50.611,49.195A26.428,26.428,0,0,1,47.858,73.6,26.067,26.067,0,0,1,26.2,85.121Z" transform="translate(33.776 104.399) rotate(-101.075)"/></g></g></g><g class="i" transform="translate(43.285 29.17)"><g class="i"><g class="i"><path class="f" d="M21.992,39.926a9.456,9.456,0,1,0,9.456,9.456A9.417,9.417,0,0,0,21.992,39.926Zm0,31.52A21.88,21.88,0,0,1,3.815,61.78,22.183,22.183,0,0,1,1.5,41.291l9.981-22.064L20.1,1.156a2.125,2.125,0,0,1,3.783,0L32.5,19.227,42.48,41.291A22.183,22.183,0,0,1,40.169,61.78,21.88,21.88,0,0,1,21.992,71.446Z" transform="matrix(0.628, -0.778, 0.778, 0.628, 29.308, 65.599)"/></g></g></g></svg>