<svg xmlns="http://www.w3.org/2000/svg" width="78.971" height="128.277" viewBox="0 0 78.971 128.277"><defs><style>.a{opacity:0.79;}.b{fill:#fff;}</style></defs><g class="a"><path class="b" d="M599.377,190.363a16.977,16.977,0,1,1,16.977-16.977A16.905,16.905,0,0,1,599.377,190.363Zm0-56.592a39.282,39.282,0,0,0-32.635,17.356,39.822,39.822,0,0,0-4.149,36.785l17.921,39.615,15.469,32.446a3.814,3.814,0,0,0,6.79,0l15.469-32.446,17.92-39.615a39.822,39.822,0,0,0-4.149-36.785A39.282,39.282,0,0,0,599.377,133.771Z" transform="translate(-559.892 -133.771)"/></g></svg>