<svg xmlns="http://www.w3.org/2000/svg" width="20.691" height="32.762" viewBox="0 0 20.691 32.762"><defs><style>.a{stroke:#4e4e4e;}</style></defs><g transform="translate(0.569 0.5)"><path class="a" d="M628.773,326a9.723,9.723,0,0,0-8.078,4.3,9.862,9.862,0,0,0-1.027,9.108l4.436,9.809,3.829,8.032a.945.945,0,0,0,1.681,0l3.829-8.032,4.436-9.809a9.861,9.861,0,0,0-1.027-9.106A9.722,9.722,0,0,0,628.773,326Zm8.244,13.046-4.417,9.766-3.821,8.016h-.013l-3.813-8-4.425-9.784a8.929,8.929,0,0,1,.94-8.228,8.809,8.809,0,0,1,14.612.007A8.924,8.924,0,0,1,637.017,339.046Z" transform="translate(-618.996 -326)"/><path class="a" d="M635.136,338a4.186,4.186,0,1,0,.034,0Zm0,7.474A3.269,3.269,0,1,1,638.4,342.2a3.235,3.235,0,0,1-3.2,3.27h-.07Z" transform="translate(-625.359 -332.396)"/></g></svg>